#N canvas 511 132 929 683 10;
#X obj 101 102 cnv 15 198 198 empty empty empty 20 12 0 14 -33289 -66577
0;
#X obj -267 215 pix_grey;
#X msg -242 243 reset;
#X obj -267 272 pix_background;
#X msg -150 180 \$1 \$1 \$1;
#X obj -262 317 pix_blob;
#N canvas 397 139 620 460 cursor 0;
#X obj 17 14 inlet;
#X obj 89 18 inlet;
#X obj 52 366 translateXYZ;
#X text 63 148 0.64;
#X text 37 151 1;
#X obj 23 63 t f f;
#X obj 37 176 -;
#X text 62 177 X-Range;
#X text 196 176 Y-Range;
#X obj 63 240 expr (8/$f1);
#X obj 33 241 -;
#X obj 51 267 *;
#X obj 29 95 max 0;
#X obj 71 95 min 10;
#X obj 59 132 f;
#X obj 33 131 f;
#X obj 52 293 - 4;
#X text 193 146 0.64;
#X text 167 149 1;
#X obj 153 61 t f f;
#X obj 167 174 -;
#X obj 193 238 expr (8/$f1);
#X obj 163 239 -;
#X obj 181 265 *;
#X obj 159 93 max 0;
#X obj 201 93 min 10;
#X obj 189 130 f;
#X obj 163 129 f;
#X text 188 171 comment;
#X obj 154 298 expr (-1*$f1)+4;
#X obj 13 324 gemhead 15;
#X obj 17 423 separator;
#X obj 87 423 separator;
#X obj 83 484 rectangle 0.2 0.01;
#X obj 57 392 colorRGB 1 0 0 1;
#X obj 17 462 rectangle 0.01 0.2;
#X obj 188 362 outlet;
#X obj 93 329 outlet;
#X obj 396 178 inlet;
#X obj 347 260 spigot;
#X connect 0 0 5 0;
#X connect 1 0 19 0;
#X connect 2 0 34 0;
#X connect 5 0 10 0;
#X connect 5 0 12 0;
#X connect 5 1 13 0;
#X connect 6 0 9 0;
#X connect 9 0 11 1;
#X connect 10 0 11 0;
#X connect 11 0 16 0;
#X connect 12 0 15 0;
#X connect 13 0 14 0;
#X connect 14 0 6 1;
#X connect 14 0 10 1;
#X connect 14 0 13 1;
#X connect 15 0 6 0;
#X connect 15 0 12 1;
#X connect 16 0 2 1;
#X connect 16 0 37 0;
#X connect 19 0 22 0;
#X connect 19 0 24 0;
#X connect 19 1 25 0;
#X connect 20 0 21 0;
#X connect 21 0 23 1;
#X connect 22 0 23 0;
#X connect 23 0 29 0;
#X connect 24 0 27 0;
#X connect 25 0 26 0;
#X connect 26 0 20 1;
#X connect 26 0 22 1;
#X connect 26 0 25 1;
#X connect 27 0 20 0;
#X connect 27 0 24 1;
#X connect 29 0 2 2;
#X connect 29 0 36 0;
#X connect 30 0 39 0;
#X connect 31 0 35 0;
#X connect 32 0 33 0;
#X connect 34 0 31 0;
#X connect 34 0 32 0;
#X connect 38 0 39 1;
#X connect 39 0 2 0;
#X restore -248 392 pd cursor;
#X obj -245 93 separator;
#X obj -245 114 pix_texture;
#X obj -245 135 square 4;
#X obj -82 519 pix_texture;
#X obj -267 192 separator;
#X obj -82 499 alpha;
#X obj -82 479 colourRGB 1 1 1 0.65;
#X obj -82 559 square 1.5;
#X text -84 460 Show pix_background output;
#X text 484 331 Set noise threshold;
#X obj 110 242 hsl 180 15 0 1 0 1 empty empty noise_treshold_(max-min)
-2 -8 0 10 -183105 -258113 -258113 4500 1;
#X floatatom -145 346 5 0 0 0 - - -;
#X floatatom -271 428 5 0 0 0 - - -;
#X floatatom -196 426 5 0 0 0 - - -;
#X text -246 75 Render source video;
#X obj -13 397 spigot;
#X obj 107 189 tgl 15 0 empty empty show_background_removal 17 7 0
10 -258113 -1 -258113 1 1;
#X obj 107 209 tgl 15 0 empty empty show_crosshair 17 7 0 10 -258113
-1 -258113 1 1;
#X obj -222 43 spigot;
#X obj 107 169 tgl 15 0 empty empty show_source_video 17 7 0 10 -258113
-1 -258113 1 1;
#X obj 107 260 bng 30 250 50 0 empty empty capture_background! 40 12
0 12 -258113 -1 -258113;
#X obj -236 458 outlet;
#X obj -175 459 outlet;
#X obj 101 101 cnv 15 198 25 empty empty ++_LASERTRACKER 10 12 0 14
-257985 -1 0;
#X obj 107 139 cnv 10 100 1 empty empty input>_pix_video 0 0 0 12 -1
-257985 0;
#X obj 107 155 cnv 10 100 1 empty empty output>x_y_coordinate 0 0 0
12 -1 -257985 0;
#X obj -274 -99 inlet;
#X obj 101 295 cnv 2 10 4 empty empty empty 20 12 0 14 -257985 -66577
0;
#X obj 101 101 cnv 2 10 4 empty empty empty 20 12 0 14 -128992 -66577
0;
#X obj 289 295 cnv 2 10 4 empty empty empty 20 12 0 14 -257985 -66577
0;
#X obj -100 412 gemhead 14;
#X obj -82 539 translateXYZ -2.4 -2.4 0;
#X obj 84 367 pix_texture;
#X connect 1 0 3 0;
#X connect 2 0 3 0;
#X connect 3 0 5 0;
#X connect 3 0 39 0;
#X connect 4 0 3 1;
#X connect 5 1 6 0;
#X connect 5 2 6 1;
#X connect 6 0 19 0;
#X connect 6 1 20 0;
#X connect 7 0 8 0;
#X connect 8 0 9 0;
#X connect 10 0 38 0;
#X connect 11 0 1 0;
#X connect 12 0 10 0;
#X connect 13 0 12 0;
#X connect 17 0 18 0;
#X connect 17 0 4 0;
#X connect 19 0 28 0;
#X connect 20 0 29 0;
#X connect 22 0 13 0;
#X connect 23 0 22 1;
#X connect 24 0 6 2;
#X connect 25 0 7 0;
#X connect 26 0 25 1;
#X connect 27 0 2 0;
#X connect 33 0 11 0;
#X connect 33 0 25 0;
#X connect 37 0 22 0;
#X connect 38 0 14 0;
#X connect 39 1 10 1;
#X coords 0 -1 1 1 200 200 1 100 100;
